<?xml version="1.0" encoding="utf-8"?>
<!-- Generator: Adobe Illustrator 28.0.0, SVG Export Plug-In . SVG Version: 6.00 Build 0)  -->
<svg version="1.1" id="Слой_1" xmlns="http://www.w3.org/2000/svg" xmlns:xlink="http://www.w3.org/1999/xlink" x="0px" y="0px"
	 viewBox="0 0 46 46" style="enable-background:new 0 0 46 46;" xml:space="preserve">
<style type="text/css">
	.st0{fill:#242B33;}
	.st1{fill:#FFFFFF;}
</style>
<g>
	<rect y="-0.6" class="st0" width="46" height="46.6"/>
	<path class="st1" d="M14.9,19.8c-1,2.3-1.7,4.6-1.7,7.1c0,0.4,0.2,0.9,0.4,1.3c0.9,1.6,1.8,3.2,2.8,4.8c0.1-1.1-0.1-2.2-0.9-3
		c-2.1-1.8-1.9-4-1.3-6.3c0.3-1,0.9-2,1.3-3c0.1,0,0.2,0,0.3,0c0.3,0.7,0.5,1.4,0.9,2c1.4,2.1,1.4,4.3,0.7,6.7
		c-0.3,1-0.4,2.1-0.4,3.2c0,1.2,0.6,2.2,1.6,3c-0.3-0.9-0.6-1.7-0.8-2.5c-0.1-0.6-0.2-1.2-0.2-1.7c0-0.2,0.3-0.7,0.5-0.7
		c0.3,0,0.7,0.2,0.8,0.5c0.1,0.2,0,0.8-0.2,0.9c-0.4,0.3-0.5,0.5-0.4,1c0.5,2.3,1.3,4.3,3.5,5.5c0.4,0.2,0.8,0.3,1.3,0.5
		c-0.1-0.3-0.2-0.4-0.2-0.4c-2.3-0.8-3.1-2.8-3.5-4.9c-0.2-1.2-0.2-2.4-0.3-3.5c0-0.3,0-0.6,0.1-0.8c0.8,0.6,1.6,1.2,2.3,1.8
		c1.1,0.8,1.8,2,2.1,3.3c0.1,0.5,0.4,0.7,0.9,0.7c3.6,0,7.1-0.1,10.7-0.1c1.2,0,1.3,0.1,1.3,1.3c0,0,0,0,0,0.1
		c0,1.2,0.2,1.1-1.2,1.2c-3.3,0-6.6,0.1-10,0.1c-0.3,0-0.5,0-0.8,0c0.1,0.8,0.4,1.2,1.2,1.2c3.9-0.1,7.8-0.1,11.7-0.1
		c1.2,0,1.4,0.3,1.4,1.4c0,0.8,0,1.5-0.1,2.3c0,0.9-0.3,1.2-1.2,1.3c-1.5,0-2.9,0-4.4,0.1c-0.3,0-0.5,0-0.9,0c0,0.5-0.1,1-0.1,1.5
		c-0.1,0-0.2,0-0.2,0c-0.9-1.3-2.1-1.5-3.6-1.5C26.1,44,23.7,44,21.3,44c-1.2,0-1.5-0.2-1.4-1.5c0-0.6,0-1.2,0-1.8
		c-0.7,0.2-1.3,0.3-1.9,0.5c-1.5,0.3-3,0.2-4.3-0.8c-1.1-0.8-2.3-1.5-3.6-2.4c2-0.3,3.8-0.7,5.6-0.8c1.4-0.1,2.5,0.7,3.7,1.3
		c0.5,0.3,1.1,0.5,1.6,0.7c0-0.1,0.1-0.2,0.2-0.4c-0.5-0.3-1.1-0.5-1.6-0.8c-0.7-0.3-1.4-0.4-2.1-0.7c-1.8-0.8-3.7-1.2-5.7-1.2
		c-0.3,0-0.6,0-0.8,0.1c0.2,1,0,1.3-0.6,1.3c-0.2,0-0.5-0.1-0.6-0.2c-0.1-0.2-0.1-0.6,0-0.7c0.5-0.3,1.1-0.8,1.6-0.8
		c1.4,0,2.7,0.1,4.1,0.3c1.1,0.2,2.2,0.7,3.4,1.1c-0.7-1-1.4-1.6-2.5-1.6c-1,0-2-0.1-3-0.2c-2.8-0.2-5.9-2.9-6.4-5.7
		c0-0.1,0-0.2,0-0.4c0.2,0.1,0.4,0.1,0.6,0.2c1.2,0.4,2.4,0.8,3.6,1.1c1.8,0.4,3.2,1.3,4.2,2.9c0.2,0.3,0.4,0.5,0.7,0.7
		c-0.9-1.4-1.7-2.9-2.6-4.2c-0.2-0.2-0.5-0.4-0.8-0.5c-0.5-0.2-1-0.4-1.5-0.4c-2.2-0.1-3.7-1.4-4.8-3.2c-0.8-1.4-1.4-2.8-2.2-4.2
		c2,0.1,5.3,1.9,7,3.7c-0.1-1-2.1-3.1-3.9-4.3c-0.2,0.2-0.3,0.4-0.6,0.5c-0.3,0-0.8,0-0.9-0.1c-0.2-0.2-0.3-0.7-0.2-1
		c0-0.2,0.6-0.3,0.8-0.3c0.5,0.1,0.9,0.4,1.3,0.7c1,0.8,1.9,1.6,2.9,2.5c-0.2-1.5-1.2-2.7-2.6-3.1c-1.7-0.5-2.6-1.8-3.2-3.3
		c-0.3-0.9-0.4-2-0.6-3C4.3,12.4,4.2,11,4,9.5C4.2,9.6,4.6,9.8,4.9,10c3,2.1,4.6,5,4.7,8.7c0,0.7,0.3,1.3,0.4,2c0.1,0,0.2,0,0.3,0
		c-0.1-0.4-0.1-0.7-0.2-1c-0.3-1.9-0.5-3.8-0.8-5.6c-0.2-1.3-0.8-2.5-1.8-3.4C6.7,10.9,6,10.7,5.9,10c0-0.4,0.2-0.9,0.4-1.2
		c0.4-0.4,0.8-0.1,1.1,0.3c0.6,0.9,1.2,1.8,1.8,2.7c0.1,0.1,0.1,0.2,0.2,0.3c-1.1-1.9-1.4-3.8-0.7-5.9c0.7-1.9,1.5-3.8,2.9-5.3
		c0.1,0,0.2,0,0.3,0c0.3,1.8,0.8,3.6,1,5.4c0.2,1.9-0.7,3.6-1.9,5.2c-0.3,0.4-0.5,0.8-0.6,1.2c-0.4,3.2-0.1,6.4,0.7,9.6
		c0.1,0.2,0.1,0.3,0.2,0.5c0.3-0.8,0.5-1.5,0.1-2.2c-1.4-3-0.5-5.6,1.2-8c0.5-0.7,1.1-1.4,1.8-2.3c0.1,1.4,0.2,2.5,0.4,3.6
		c0.4,1.9,0.1,3.6-0.6,5.4c-0.3,0.6-0.7,1.3-1.2,1.7c-1.3,1.2-1.7,2.5-1.1,4.2c0.1,0.2,0.2,0.5,0.3,0.7c0.4-1.4,0.6-2.8,1.1-4.1
		c0.3-1,0.8-1.9,1.4-2.8c0.2-0.4,0.7-1,1.2-0.5c0.2,0.2,0.3,0.9,0.2,1.2C16,20.3,15.5,20.3,14.9,19.8z M10.6,11.4
		c-0.1-0.2-0.4-0.4-0.4-0.6c0-0.5,0.1-1,0.2-1.5c0.2-1.7,0.5-3.3,0.7-5c-0.1,0-0.2,0-0.2,0c-1,2.3-1.5,4.7-0.8,7.3
		C10.3,11.5,10.4,11.5,10.6,11.4c0.2-0.4,0.5-0.8,0.7-1.2c1.1-1.9,1.3-3.8,0.4-5.9c-0.1-0.2-0.2-0.4-0.3-0.6c0,0.7,0.1,1.3,0.3,1.8
		c0.4,1.2,0.3,2.4-0.3,3.5c-0.2,0.5-0.5,1-0.7,1.6C10.6,10.9,10.6,11.2,10.6,11.4z M13.9,13.2c-1.9,1.7-2.8,5.4-1.7,7.3
		c1.1-2,0.6-4.3,1.3-6.4c0.4,2.1,0.9,4.2-0.5,6.1C14.8,18,14.5,15.7,13.9,13.2z M23.7,38.4c-1.1-2-1.2-4.3-3-5.8
		c0.1,0,0.1-0.1,0.2-0.1c0.8,0.7,1.5,1.3,2.4,2.1c-0.6-1.5-1.7-2.1-2.8-2.8C20.3,34.7,21.5,37.6,23.7,38.4z M14.5,39.5
		c1.4-0.1,2.9-0.3,4.4-0.4c-1.6-1.4-4.5-1.6-5.9-0.4c1,1.8,4.7,2.2,6.2,1.7C17.6,40.2,15.9,40.4,14.5,39.5z M11.3,33.2
		c0-0.1,0.1-0.2,0.1-0.2c0.2,0,0.4,0,0.6,0.1c1.1,0.2,2.2,0.5,3.2,0.8c-0.9-1.5-3.2-2.4-5.4-2c1.1,2,3.3,3.4,4.9,3.1
		C13.5,34.4,12.4,33.8,11.3,33.2z M5.8,13.1c1.3,1.1,2.3,2.2,3,3.6c-0.3-2-1.5-3.4-3.2-4.4c-0.6,2.1,0.2,4.4,1.8,5.4
		C6.8,16.3,6.3,14.8,5.8,13.1z M15.7,23.5c-0.9,2.5-0.4,4.7,0.7,7C17.5,27.4,17.5,24.9,15.7,23.5z M6.1,23.5
		c0.3,1.6,2.3,3.2,3.9,3.3c-0.6-1.4-2.1-1.9-3.2-2.8c1.6,0.6,3.3,0.9,4.4,2.2C9.9,24.5,8.2,23.6,6.1,23.5z"/>
	<path class="st1" d="M34.6,34.1c-3.3,0-6.6,0-10,0c0.1-1.5,0.2-3,0.3-4.4c0.5-7.6,1.1-15.1,1.6-22.7c0.1-0.8,0.3-1.4,0.9-2
		c0.8-0.7,1.4-1.5,2.1-2.3c0.5-0.6,1-0.6,1.6,0c0.9,0.9,1.7,1.9,2.5,2.9c0.2,0.2,0.3,0.5,0.3,0.8c0.3,9.1,0.5,18.1,0.7,27.2
		C34.7,33.7,34.6,33.8,34.6,34.1z"/>
	<path class="st1" d="M16,24.5c0.6,1.5,1.4,2.9,0.3,4.5C15.7,27,15.6,25.3,16,24.5z"/>
</g>
</svg>
