<?xml version="1.0" encoding="utf-8"?>
<!-- Generator: Adobe Illustrator 28.0.0, SVG Export Plug-In . SVG Version: 6.00 Build 0)  -->
<svg version="1.1" id="Слой_1" xmlns="http://www.w3.org/2000/svg" xmlns:xlink="http://www.w3.org/1999/xlink" x="0px" y="0px"
	 viewBox="0 0 1366.43 352.17" style="enable-background:new 0 0 1366.43 352.17;" xml:space="preserve">
<style type="text/css">
	.st0{display:none;}
	.st1{fill:#FFFFFF;}
</style>
<g>
	<rect x="8.61" y="13.3" class="st0" width="1346.09" height="328.7"/>
	<path class="st1" d="M93.77,157.39c-6.74,15.38-11.43,30.54-11.44,46.81c0,2.87,1.02,6,2.4,8.56c5.7,10.63,11.73,21.08,18.22,31.3
		c0.78-7.57-0.63-14.59-6.28-19.52c-13.48-11.78-12.67-26.39-8.43-41.39c1.94-6.86,5.82-13.18,8.83-19.74
		c0.59,0.11,1.19,0.23,1.78,0.34c1.92,4.33,3.33,8.98,5.84,12.92c8.92,14.01,9.35,28.58,4.85,44.16c-1.95,6.76-2.36,14.1-2.6,21.2
		c-0.28,8.15,3.98,14.39,10.87,20.01c-1.94-6.02-3.87-11.14-5.18-16.4c-0.92-3.67-1.43-7.57-1.26-11.34
		c0.07-1.64,2.26-4.43,3.55-4.47c1.83-0.05,4.6,1.55,5.34,3.19c0.71,1.55-0.01,5.13-1.27,5.92c-2.78,1.72-2.97,3.57-2.38,6.24
		c3.29,14.87,8.4,28.57,23.21,35.96c2.41,1.2,5.06,1.94,8.82,3.35c-1-1.78-1.13-2.41-1.45-2.53c-15.04-5.61-20.59-18.22-23.27-32.48
		c-1.44-7.65-1.58-15.56-2.16-23.36c-0.14-1.83,0.33-3.7,0.5-5.38c5.49,4.16,10.41,7.98,15.42,11.68
		c7.45,5.51,11.92,12.98,14.04,21.81c0.86,3.59,2.44,4.72,6.12,4.66c23.5-0.33,46.99-0.44,70.49-0.57c8.07-0.05,8.61,0.56,8.48,8.46
		c0,0.17-0.01,0.33-0.01,0.5c-0.28,8.04,1.19,7.49-7.55,7.6c-21.83,0.27-43.66,0.47-65.49,0.69c-1.76,0.02-3.51,0-5.39,0
		c0.42,5.59,2.37,7.82,7.88,7.71c25.66-0.53,51.32-0.62,76.99-0.85c7.64-0.07,9.46,1.76,9.33,9.4c-0.09,5-0.27,10-0.5,14.99
		c-0.27,5.95-2.27,8.16-8.22,8.35c-9.66,0.3-19.33,0.33-28.99,0.46c-1.8,0.02-3.6,0-5.73,0c-0.23,3.52-0.43,6.57-0.62,9.54
		c-0.75,0.08-1.25,0.25-1.34,0.13c-5.94-8.37-14.07-10.09-23.95-9.52c-15.62,0.9-31.32,0.56-46.98,0.73c-8,0.08-9.54-1.54-9.46-9.69
		c0.04-3.79,0.01-7.58,0.01-11.79c-4.47,1.09-8.45,2.2-12.49,3.02c-10.02,2.03-19.54,1.06-28.22-4.91
		c-7.48-5.14-15.05-10.17-23.64-15.96c13.44-2.1,25.06-4.55,36.8-5.56c8.94-0.77,16.41,4.75,24.17,8.53
		c3.52,1.71,7.24,3.01,10.87,4.49c0.36-0.8,0.72-1.61,1.09-2.41c-3.59-1.69-7.1-3.59-10.78-5.03c-4.46-1.75-9.25-2.72-13.57-4.71
		c-11.87-5.48-24.32-7.93-37.29-8.19c-1.79-0.04-3.6,0.26-5.43,0.4c1.18,6.45,0.21,8.73-3.94,8.86c-1.46,0.05-3.56-0.6-4.26-1.66
		c-0.69-1.04-0.56-3.87,0.23-4.42c3.3-2.27,6.98-5.52,10.55-5.57c8.89-0.12,17.92,0.71,26.68,2.33c7.27,1.34,14.23,4.34,22.39,6.95
		c-4.41-6.54-9.13-10.33-16.2-10.62c-6.49-0.27-12.98-0.64-19.46-1.1c-18.58-1.31-38.59-19.33-41.85-37.64
		c-0.11-0.61-0.01-1.25-0.01-2.47c1.55,0.43,2.74,0.74,3.92,1.1c7.95,2.43,15.81,5.26,23.88,7.22c11.73,2.86,21.21,8.57,27.62,19
		c1.12,1.82,2.47,3.49,4.58,4.68C96.65,242,90.98,232.59,85,223.38c-1.08-1.66-3.28-2.88-5.23-3.62c-3.09-1.17-6.37-2.4-9.61-2.51
		c-14.83-0.51-24.43-8.86-31.34-20.86c-5.12-8.89-9.45-18.23-14.14-27.39c13.23,0.7,34.74,12.16,45.94,24.46
		c-0.77-6.22-13.54-20.33-25.71-28.32c-1.17,1.03-2.28,2.81-3.63,3.01c-2.05,0.3-5.11,0.24-6.19-1.01c-1.31-1.53-1.7-4.63-1.14-6.68
		c0.28-1.04,3.8-2.16,5.37-1.68c3.1,0.96,6.14,2.66,8.69,4.7c6.46,5.16,12.63,10.67,19.02,16.13c-1.45-10.21-8.12-17.78-17.14-20.4
		c-11.1-3.22-17.39-11.56-20.77-21.94c-2.04-6.26-2.74-13-3.64-19.58c-1.25-9.15-2.13-18.35-3.24-28.14
		c1.59,0.91,3.81,1.96,5.81,3.34c19.97,13.73,30.13,32.72,30.89,56.97c0.14,4.41,1.86,8.78,2.85,13.17
		c0.62-0.12,1.24-0.24,1.86-0.36c-0.36-2.29-0.75-4.57-1.06-6.87c-1.68-12.37-3.02-24.8-5.12-37.1c-1.48-8.67-5.5-16.36-11.76-22.68
		c-5.48,2.56-10.39,1.38-10.88-3.08c-0.28-2.5,0.99-5.97,2.8-7.72c2.52-2.43,5.49-0.39,7.21,2.01c4.17,5.81,8.05,11.83,12.03,17.78
		c0.46,0.68,0.79,1.44,1.63,2.09c-7.03-12.32-9.43-25.18-4.77-38.78c4.36-12.75,9.78-24.95,19-34.97c0.62,0.01,1.23,0.03,1.85,0.04
		c2.19,11.83,5.29,23.58,6.34,35.51c1.13,12.82-4.76,23.89-12.23,34.09c-1.7,2.32-3.43,5.14-3.74,7.89
		c-2.37,21.24-0.99,42.25,4.75,62.9c0.3,1.08,0.94,2.06,1.65,3.58c2.13-5.1,3.12-9.65,0.79-14.41c-9.53-19.44-3.32-36.58,7.88-52.89
		c3.35-4.87,7.18-9.4,11.57-15.1c0.97,8.87,1.3,16.28,2.68,23.48c2.35,12.23,0.99,23.97-3.74,35.26c-1.75,4.18-4.38,8.4-7.68,11.44
		c-8.75,8.07-11.24,16.57-6.95,27.7c0.59,1.52,1.32,2.97,2.18,4.87c2.4-9.47,4.15-18.55,7.08-27.25c2.15-6.39,5.54-12.43,8.97-18.28
		c1.55-2.64,4.44-6.28,7.95-3.2c1.59,1.4,2.14,5.81,1.16,7.93C101.44,160.92,97.76,160.46,93.77,157.39z M65.48,102.3
		c-0.87-1.34-2.5-2.7-2.47-4.02c0.08-3.29,0.96-6.55,1.45-9.83c1.62-10.91,3.2-21.82,4.8-32.73c-0.53-0.07-1.07-0.13-1.6-0.2
		c-6.83,15.32-10.16,31.06-5.4,48.25c1.48-0.71,2.32-1.11,3.12-1.56c1.55-2.72,3.09-5.45,4.64-8.17
		c7.07-12.46,8.48-25.35,2.86-38.73c-0.56-1.33-1.41-2.53-2.13-3.79c0.19,4.35,0.85,8.34,2.15,12.12c2.75,8.04,1.9,15.68-1.71,23.19
		c-1.65,3.44-3.37,6.86-4.8,10.39C65.76,98.77,65.77,100.59,65.48,102.3z M87.37,114c-12.56,11.29-18.11,35.74-11.22,47.76
		c7.3-13.21,4.11-28.53,8.64-42.21c2.94,13.76,5.76,27.46-3.5,40.09C92.99,145.86,91.18,130.38,87.37,114z M151.74,280.05
		c-7.09-13.05-7.84-28.11-19.79-37.88c0.45-0.24,0.89-0.48,1.34-0.72c4.94,4.28,9.89,8.56,15.89,13.75
		c-3.66-10.16-11.07-14.09-18.62-18.42C129.33,255.33,137.24,274.58,151.74,280.05z M91.3,287.08c9.49-0.86,18.84-1.71,28.94-2.63
		c-10.26-9.34-29.4-10.33-38.49-2.7c6.81,11.48,30.87,14.6,41.01,10.97C111.68,291.85,100.56,293.18,91.3,287.08z M70.08,245.28
		c0.2-0.55,0.4-1.1,0.6-1.64c1.28,0.15,2.6,0.19,3.85,0.48c7.2,1.67,14.39,3.41,21.02,4.99c-5.83-10.04-20.74-15.68-35.84-12.97
		c7.35,13.13,21.51,22.06,31.95,20.7C84.82,253.18,77.45,249.23,70.08,245.28z M33.94,113.39c8.27,7.45,15.1,14.55,19.39,23.82
		c-2.13-13.24-9.67-22.36-21.16-28.92c-3.59,14.09,1.06,28.82,12.08,35.45C40.98,134.12,37.72,124.49,33.94,113.39z M99.14,181.85
		c-6.07,16.1-2.81,31.13,4.67,46.15C111.3,207.63,110.87,190.98,99.14,181.85z M36.19,181.42c1.82,10.6,14.94,21.31,25.87,21.47
		c-4.21-9.4-13.68-12.71-21.2-18.36c10.31,3.88,21.53,5.75,29.06,14.76C61.44,188.24,50.21,182.48,36.19,181.42z"/>
	<path class="st1" d="M271.3,207.86c0.03-32.27,11-60,34.48-82.39C351.56,81.81,418.75,95.76,443.6,154
		c21.03,49.29,1.4,110.74-44.45,138.43c-32.12,19.4-83.08,19.73-113.38-29.76C275.47,245.84,271.31,227.39,271.3,207.86z
		 M435.02,223.26c0.13-25.6-5.74-43.74-17.47-59.83c-14.87-20.4-33.34-35.75-59.1-40.32c-35.5-6.3-64.69,15.36-68.66,50.98
		c-4.61,41.34,19.96,83.51,58.34,99.54c16.17,6.75,32.97,8.62,49.75,2.59C420.7,268.02,434.98,245.02,435.02,223.26z"/>
	<path class="st1" d="M223.62,251.71c-21.94,0-43.5,0-65.63,0c0.71-9.73,1.42-19.47,2.13-29.21c3.61-49.69,7.27-99.38,10.75-149.08
		c0.37-5.25,1.71-9.52,5.6-13.27c4.91-4.73,9.27-10.03,13.97-14.98c3.55-3.73,6.8-3.79,10.26-0.02c5.63,6.14,11.13,12.4,16.49,18.77
		c1.07,1.27,1.76,3.25,1.8,4.92c1.68,59.64,3.26,119.28,4.84,178.92C223.87,248.76,223.74,249.76,223.62,251.71z"/>
	<path class="st1" d="M941.12,129.73c-0.39,0.54-0.64,1.25-1.13,1.52c-9.47,5.26-12.32,13.59-11.98,23.94
		c1.07,32.15,1.84,64.31,2.75,96.46c0.05,1.7,0.33,3.4,0.5,5.1c0.44,0.11,0.88,0.21,1.33,0.32c0.84-1.28,1.82-2.5,2.5-3.86
		c17.26-34.39,34.52-68.79,51.71-103.21c3.77-7.55,2.42-12.23-4.54-17.1c-1.43-1-2.84-2.04-4.25-3.06c0.12-0.5,0.23-1,0.35-1.5
		c16.99,0,33.98,0,52.33,0c-2.11,1.66-3.43,2.68-4.73,3.72c-5.8,4.61-9.29,10.39-9.04,18.02c1.33,40.98,2.65,81.96,4.03,122.93
		c0.23,6.87,3.87,11.87,9.32,15.74c1.7,1.2,3.34,2.48,5.01,3.73c-0.13,0.42-0.25,0.84-0.38,1.26c-16.97,0-33.93,0-51.18,0
		c0.4-0.82,0.5-1.43,0.84-1.65c10.33-6.68,12.56-16.14,11.9-28.06c-1.81-32.61-2.51-65.28-3.64-97.93c-0.06-1.6-0.01-3.2-0.94-5.04
		c-3.31,6.44-6.65,12.86-9.91,19.31c-15.11,29.88-30.22,59.77-45.29,89.67c-5.3,10.52-3.26,16.32,7.43,21.73
		c0.56,0.28,1.02,0.75,1.57,1.17c-2.69,2.01-43.77,2.96-52.08,1.06c1.7-1.3,2.78-2.35,4.04-3.05c7.32-4.07,10.26-10.1,9.96-18.57
		c-1.41-39.31-2.56-78.63-3.64-117.95c-0.27-9.82-3.81-17.41-12.71-22.09c-0.44-0.23-0.87-0.52-1.21-0.87
		c-0.2-0.21-0.21-0.6-0.3-0.91C892.91,128.32,936.4,127.51,941.12,129.73z"/>
	<path class="st1" d="M1177.22,292.33c14.01-8.58,12.9-21.83,12.08-35.6c-2.09-35.28-3.62-70.59-5.1-105.9
		c-0.41-9.77-4.49-16.82-12.9-21.55c-0.78-0.44-1.38-1.23-1.81-3.15c17.15,0,34.31,0,52.3,0c-1.39,1.25-2.36,2.2-3.42,3.06
		c-6.45,5.24-10.1,11.58-9.58,20.3c1,16.64,1.55,33.3,2.31,49.96c0.05,1.14,0.29,2.28,0.55,4.21c4.53-1.08,8.86-1.93,13.1-3.15
		c13.47-3.86,25.94-9.79,36.06-19.65c9.32-9.08,13.48-19.98,9.85-33.15c-1.14-4.16-1.97-8.47-2.3-12.76
		c-0.67-8.79,5.48-16,14.09-17.08c8.47-1.06,14.25,3.37,16.43,12.47c2.8,11.67-0.36,22.13-6.56,31.89
		c-8.58,13.51-20.04,23.96-34.17,31.49c-2.63,1.4-5.25,2.84-8.12,4.39c4.37,2.63,8.66,4.77,12.45,7.58
		c8.86,6.55,15.77,15.07,20.65,24.77c8,15.91,15.28,32.19,22.54,48.46c6.46,14.46,12.29,29.22,22.54,41.62
		c0.27,0.33,0.29,0.88,0.75,2.36c-3.21-0.64-5.93-0.88-8.44-1.73c-19.85-6.74-34.41-19.73-42.84-38.77
		c-6.67-15.05-11.9-30.73-17.91-46.08c-4.09-10.45-8.75-20.55-17.72-27.98c-3.65-3.02-7.04-4.09-11.78-2.01
		c-4.68,2.06-9.83,3.12-14.86,4.24c-2.74,0.61-3.96,1.55-3.81,4.58c0.92,18.48,1.56,36.98,2.52,55.46
		c0.39,7.57,5.04,12.84,10.66,17.34c1.36,1.09,2.8,2.07,4.2,3.1c-0.12,0.43-0.24,0.86-0.36,1.28
		C1211.5,292.33,1194.36,292.33,1177.22,292.33z"/>
	<path class="st1" d="M460.29,297.3c1.96-1.53,3.01-2.42,4.13-3.21c6.98-4.96,10.7-11.47,10.71-20.27
		c0.06-39.17,0.2-78.34,0.59-117.5c0.07-7.01-2.4-11.81-8.46-15.09c-1.99-1.08-3.7-2.66-5.54-4.01c0-0.56,0-1.12,0-1.68
		c3.37-0.65,6.72-1.73,10.11-1.87c19.64-0.82,39.3-1.22,58.93-2.22c5.88-0.3,11.67-2.27,17.54-3.14c1.8-0.27,4.56-0.15,5.54,0.97
		c9.07,10.35,13.26,23.13,17.85,35.69c-0.4,0.42-0.8,0.85-1.21,1.27c-1.61-1.01-3.4-1.82-4.8-3.06c-4.6-4.1-8.92-8.53-13.6-12.53
		c-10.27-8.75-22.35-12.4-35.69-11.43c-8.88,0.65-14.27,5.63-16.37,14.29c-0.58,2.4-0.78,4.94-0.8,7.42
		c-0.24,35.17-0.57,70.34-0.45,105.5c0.02,5.31,1.38,10.94,3.49,15.83c2.73,6.32,8.29,9.82,15.4,10.32
		c25.68,1.8,41.81-17.46,35.46-42.45c-3.55-13.98-12.44-23.01-25.72-28.46c-6.24-2.56-12.32-5.97-17.7-10.03
		c-8.54-6.44-9.94-16.69-4.53-25.93c2.25-3.84,5.56-6.62,10-6.46c2.79,0.1,7.06,1.26,7.92,3.18c1.18,2.63,0.52,6.78-0.78,9.62
		c-1.04,2.27-4.16,3.63-6.43,5.3c-2.8,2.06-5.82,4.6-4.19,8.14c1.22,2.66,4.07,5.58,6.76,6.33c6.04,1.68,12.43,2.23,18.7,2.99
		c12.58,1.53,23.98,5.93,33.41,14.43c22.27,20.09,13.63,55.92-12.94,63.18c-10.01,2.74-20.6,4.09-31,4.52
		c-20.8,0.86-41.65,0.66-62.47,0.87C463.29,297.83,462.37,297.58,460.29,297.3z"/>
	<path class="st1" d="M777.46,130.03c34.01,0,67.63,0,102.35,0c-1.62,1.5-2.54,2.53-3.63,3.31c-7.09,5.05-10.18,11.8-9.95,20.58
		c1.03,39.16,1.86,78.32,2.69,117.49c0.17,8.17,3.76,14.32,10.24,19c1.31,0.95,2.61,1.9,3.7,4.07c-16.84,0-33.67,0-51.84,0
		c2.08-1.59,3.39-2.6,4.7-3.59c5.93-4.48,9.49-10.2,9.3-17.86c-0.99-40.16-1.99-80.32-2.97-120.48c-0.17-6.8-3.68-11.34-9.72-13.83
		c-7.97-3.3-15.69-2.35-22.79,2.52c-4.6,3.15-5.52,7.94-5.7,13.18c-0.88,25.82-1.59,51.65-2.97,77.45
		c-0.86,16-3.36,31.83-9.31,46.88c-0.86,2.16-1.88,4.27-2.99,6.32c-6.37,11.8-15.8,16.83-27.33,14.63
		c-12.21-2.32-20.57-11.18-22.12-23.9c-0.46-3.77-0.49-7.71,0.08-11.45c1.36-9.02,7.17-13.77,14.88-12.71
		c6.71,0.92,12.18,8.66,11.42,16.52c-0.35,3.64-1.36,7.21-1.82,10.84c-1.03,8.19,4.61,12.59,12.01,8.8
		c3.32-1.69,6.88-4.91,8.12-8.25c2.98-8.04,5.96-16.47,6.59-24.92c1.99-26.41,3.23-52.89,4.04-79.36
		c0.25-8.22-1.36-16.58-2.88-24.74c-1.35-7.28-5.25-13.28-12.03-16.99c-0.57-0.31-1.09-0.76-1.54-1.23
		C777.79,132.12,777.82,131.71,777.46,130.03z"/>
	<path class="st1" d="M701.81,123.32c3.25,10.54,6.66,21.61,10.51,34.11c-3.95-2.51-6.89-4.36-9.8-6.24
		c-12.21-7.9-24.45-15.95-39.53-16.79c-7.94-0.44-15.98-0.1-23.91,0.6c-6.26,0.55-11.39,5.54-11.59,11.97
		c-0.48,15.27-0.15,30.56-0.15,46.5c27.17-1.1,54.75,4.74,80.24-11.42c0,10.37,0,19.75,0,29.38c-4.08-1.63-8.06-3.94-12.32-4.77
		c-7.95-1.55-16.04-2.86-24.11-3.14c-14.14-0.49-28.31-0.14-43.06-0.14c-0.11,2.13-0.27,3.89-0.27,5.64
		c0.01,20.67,0.03,41.34,0.08,62.01c0.02,9.71,3.62,14.44,13.5,15.85c14.28,2.04,28.53,1.92,42.5-2.76
		c15.03-5.04,27.97-13.95,41.52-21.76c0.85-0.49,1.64-1.08,3.33-2.19c-0.51,1.83-0.64,2.83-1.05,3.71
		c-5.11,10.85-10.36,21.64-15.33,32.55c-1.49,3.27-2.92,3.96-6.72,3.32c-9.78-1.65-19.72-3.07-29.61-3.2
		c-25.49-0.33-50.99,0.09-76.49,0.2c-0.76,0-1.52-0.16-2.27-0.24c0.04-0.66-0.07-1.09,0.09-1.27c9.63-10.37,10.42-22.85,10.12-36.3
		c-0.77-34.16-0.78-68.35-0.52-102.52c0.08-10.34-3.15-18.87-9.37-26.67c-0.61-0.76-1.16-1.57-2.36-3.21
		c2.36-0.19,4.02-0.43,5.69-0.45c24-0.19,48-0.16,71.99-0.61C682.29,125.32,691.68,124.11,701.81,123.32z"/>
	<path class="st1" d="M1042.96,201.33c-0.07-17.74,3.02-38.15,15.74-55.87c14.6-20.33,34.48-28.16,59.24-24.64
		c4.35,0.62,9.07-0.8,13.53-1.72c3.12-0.64,5.89-0.99,6.67,2.83c2.04,9.96,8.2,17.71,13.38,26.03c0.96,1.54,0.88,3.72,1.28,5.6
		c-2.09-0.4-4.57-0.22-6.19-1.31c-6.76-4.55-13.15-9.67-19.9-14.24c-8.05-5.46-16.99-8.53-26.84-7.84
		c-16.35,1.14-28.07,11.43-33.86,29.47c-4.87,15.19-2.95,30.31,0.73,45.34c3.52,14.35,9.28,27.87,17.19,40.28
		c13.02,20.42,32.32,31.1,56.02,34.28c6.63,0.89,12.37-1.57,17.93-4.93c1.76-1.07,4.17-1.06,6.29-1.55
		c-0.32,2.46,0.13,5.44-1.11,7.27c-5.8,8.57-13.67,14.68-24.06,16.51c-32.42,5.72-57.79-6.06-77.05-32.01
		C1048.75,247.07,1043.79,226.56,1042.96,201.33z"/>
	<path class="st1" d="M101.19,188.15c4,9.67,9.29,19.25,2.04,29.6C99.41,204.65,98.63,193.44,101.19,188.15z"/>
</g>
</svg>
